<svg xmlns="http://www.w3.org/2000/svg" viewBox="0 0 19 19"><defs><style>.cls-1{fill:#1f60ff;}</style></defs><title>Asset 4</title><g id="Layer_2" data-name="Layer 2"><g id="Capa_1" data-name="Capa 1"><path class="cls-1" d="M9.5,0A9.5,9.5,0,1,0,19,9.5,9.5,9.5,0,0,0,9.5,0ZM6.72,5.05a2.68,2.68,0,0,1,.82-2,2.77,2.77,0,0,1,3.92,0,2.68,2.68,0,0,1,.82,2V9.5A2.79,2.79,0,0,1,9.5,12.28,2.79,2.79,0,0,1,6.72,9.5ZM14.5,9.5a4.82,4.82,0,0,1-1.28,3.34,4.85,4.85,0,0,1-3.16,1.63v1.15h2.22a.56.56,0,0,1,0,1.11H6.72a.56.56,0,0,1,0-1.11H8.94V14.47a4.85,4.85,0,0,1-3.17-1.63A4.82,4.82,0,0,1,4.5,9.5V8.39a.56.56,0,0,1,1.11,0V9.5A3.9,3.9,0,0,0,9.5,13.39,3.9,3.9,0,0,0,13.39,9.5V8.39a.56.56,0,0,1,1.11,0Z"/></g></g></svg>